<svg width="260" height="180" viewBox="0 0 260 180" fill="none" xmlns="http://www.w3.org/2000/svg">
<circle cx="5" cy="5" r="5" fill="#E33629" fill-opacity="0.12"/>
<circle cx="5" cy="39" r="5" fill="#E33629" fill-opacity="0.12"/>
<circle cx="5" cy="73" r="5" fill="#E33629" fill-opacity="0.12"/>
<circle cx="5" cy="107" r="5" fill="#E33629" fill-opacity="0.12"/>
<circle cx="5" cy="141" r="5" fill="#E33629" fill-opacity="0.12"/>
<circle cx="5" cy="175" r="5" fill="#E33629" fill-opacity="0.12"/>
<circle cx="30" cy="5" r="5" fill="#E33629" fill-opacity="0.12"/>
<circle cx="30" cy="39" r="5" fill="#E33629" fill-opacity="0.12"/>
<circle cx="30" cy="73" r="5" fill="#E33629" fill-opacity="0.12"/>
<circle cx="30" cy="107" r="5" fill="#E33629" fill-opacity="0.12"/>
<circle cx="30" cy="141" r="5" fill="#E33629" fill-opacity="0.12"/>
<circle cx="30" cy="175" r="5" fill="#E33629" fill-opacity="0.12"/>
<circle cx="55" cy="5" r="5" fill="#E33629" fill-opacity="0.12"/>
<circle cx="55" cy="39" r="5" fill="#E33629" fill-opacity="0.12"/>
<circle cx="55" cy="73" r="5" fill="#E33629" fill-opacity="0.12"/>
<circle cx="55" cy="107" r="5" fill="#E33629" fill-opacity="0.12"/>
<circle cx="55" cy="141" r="5" fill="#E33629" fill-opacity="0.12"/>
<circle cx="55" cy="175" r="5" fill="#E33629" fill-opacity="0.12"/>
<circle cx="80" cy="5" r="5" fill="#E33629" fill-opacity="0.12"/>
<circle cx="80" cy="39" r="5" fill="#E33629" fill-opacity="0.12"/>
<circle cx="80" cy="73" r="5" fill="#E33629" fill-opacity="0.12"/>
<circle cx="80" cy="107" r="5" fill="#E33629" fill-opacity="0.12"/>
<circle cx="80" cy="141" r="5" fill="#E33629" fill-opacity="0.12"/>
<circle cx="80" cy="175" r="5" fill="#E33629" fill-opacity="0.12"/>
<circle cx="105" cy="5" r="5" fill="#E33629" fill-opacity="0.12"/>
<circle cx="105" cy="39" r="5" fill="#E33629" fill-opacity="0.12"/>
<circle cx="105" cy="73" r="5" fill="#E33629" fill-opacity="0.12"/>
<circle cx="105" cy="107" r="5" fill="#E33629" fill-opacity="0.12"/>
<circle cx="105" cy="141" r="5" fill="#E33629" fill-opacity="0.12"/>
<circle cx="105" cy="175" r="5" fill="#E33629" fill-opacity="0.12"/>
<circle cx="130" cy="5" r="5" fill="#E33629" fill-opacity="0.12"/>
<circle cx="130" cy="39" r="5" fill="#E33629" fill-opacity="0.12"/>
<circle cx="130" cy="73" r="5" fill="#E33629" fill-opacity="0.12"/>
<circle cx="130" cy="107" r="5" fill="#E33629" fill-opacity="0.12"/>
<circle cx="130" cy="141" r="5" fill="#E33629" fill-opacity="0.12"/>
<circle cx="130" cy="175" r="5" fill="#E33629" fill-opacity="0.12"/>
<circle cx="155" cy="5" r="5" fill="#E33629" fill-opacity="0.12"/>
<circle cx="155" cy="39" r="5" fill="#E33629" fill-opacity="0.12"/>
<circle cx="155" cy="73" r="5" fill="#E33629" fill-opacity="0.12"/>
<circle cx="155" cy="107" r="5" fill="#E33629" fill-opacity="0.12"/>
<circle cx="155" cy="141" r="5" fill="#E33629" fill-opacity="0.12"/>
<circle cx="155" cy="175" r="5" fill="#E33629" fill-opacity="0.12"/>
<circle cx="180" cy="5" r="5" fill="#E33629" fill-opacity="0.12"/>
<circle cx="180" cy="39" r="5" fill="#E33629" fill-opacity="0.12"/>
<circle cx="180" cy="73" r="5" fill="#E33629" fill-opacity="0.12"/>
<circle cx="180" cy="107" r="5" fill="#E33629" fill-opacity="0.12"/>
<circle cx="180" cy="141" r="5" fill="#E33629" fill-opacity="0.12"/>
<circle cx="180" cy="175" r="5" fill="#E33629" fill-opacity="0.12"/>
<circle cx="205" cy="5" r="5" fill="#E33629" fill-opacity="0.12"/>
<circle cx="205" cy="39" r="5" fill="#E33629" fill-opacity="0.12"/>
<circle cx="205" cy="73" r="5" fill="#E33629" fill-opacity="0.12"/>
<circle cx="205" cy="107" r="5" fill="#E33629" fill-opacity="0.12"/>
<circle cx="205" cy="141" r="5" fill="#E33629" fill-opacity="0.12"/>
<circle cx="205" cy="175" r="5" fill="#E33629" fill-opacity="0.12"/>
<circle cx="230" cy="5" r="5" fill="#E33629" fill-opacity="0.12"/>
<circle cx="230" cy="39" r="5" fill="#E33629" fill-opacity="0.12"/>
<circle cx="230" cy="73" r="5" fill="#E33629" fill-opacity="0.12"/>
<circle cx="230" cy="107" r="5" fill="#E33629" fill-opacity="0.12"/>
<circle cx="230" cy="141" r="5" fill="#E33629" fill-opacity="0.12"/>
<circle cx="230" cy="175" r="5" fill="#E33629" fill-opacity="0.12"/>
<circle cx="255" cy="5" r="5" fill="#E33629" fill-opacity="0.12"/>
<circle cx="255" cy="39" r="5" fill="#E33629" fill-opacity="0.12"/>
<circle cx="255" cy="73" r="5" fill="#E33629" fill-opacity="0.12"/>
<circle cx="255" cy="107" r="5" fill="#E33629" fill-opacity="0.12"/>
<circle cx="255" cy="141" r="5" fill="#E33629" fill-opacity="0.12"/>
<circle cx="255" cy="175" r="5" fill="#E33629" fill-opacity="0.12"/>
</svg>
